<svg width="48" height="48" viewBox="0 0 48 48" fill="none" xmlns="http://www.w3.org/2000/svg">
<g clip-path="url(#clip0)">
<path d="M37.4657 26.998C36.7557 27.708 36.7597 28.86 37.4737 29.574L38.1197 30.22C38.2377 30.338 38.2397 30.532 38.1217 30.65C38.0037 30.768 37.8117 30.768 37.6917 30.648L36.1857 29.142C35.4717 28.428 34.3197 28.426 33.6097 29.134C32.8997 29.844 32.9037 30.996 33.6177 31.71L35.1237 33.216C35.2417 33.334 35.2437 33.528 35.1257 33.646C35.0077 33.764 34.8157 33.764 34.6957 33.644L32.3277 31.276C31.6137 30.562 30.4617 30.56 29.7517 31.268C29.0417 31.978 29.0457 33.13 29.7597 33.844L32.1277 36.212C32.2457 36.33 32.2477 36.524 32.1297 36.642C32.0117 36.76 31.8197 36.76 31.6997 36.64L23.3057 28.246C22.5917 27.532 21.4397 27.53 20.7297 28.238C20.0197 28.948 20.0237 30.1 20.7377 30.814L30.8397 40.916C29.5157 40.71 27.2877 40.622 25.9197 41.988C24.6357 43.272 24.6697 44.16 25.0677 44.56C26.1537 45.646 26.9897 43.93 31.9377 46.294C36.8857 48.66 40.0657 48.464 42.2397 46.326L45.2357 43.33C45.2517 43.314 45.2197 43.346 45.2357 43.33C48.2817 40.284 49.1537 36.12 46.0797 33.048C46.0737 33.042 46.0697 33.038 46.0637 33.032L40.0377 27.006C39.3277 26.292 38.1757 26.29 37.4657 26.998Z" fill="#C4C4C4"/>
<path d="M38 0H6C2.686 0 0 2.686 0 6C0 9.314 2.686 12 6 12H38C41.314 12 44 9.314 44 6C44 2.686 41.314 0 38 0ZM6 8C4.896 8 4 7.104 4 6C4 4.896 4.896 4 6 4C7.104 4 8 4.896 8 6C8 7.104 7.104 8 6 8ZM14 8C12.896 8 12 7.104 12 6C12 4.896 12.896 4 14 4C15.104 4 16 4.896 16 6C16 7.104 15.104 8 14 8Z" fill="#C4C4C4"/>
<path d="M38 16H6C2.68 16 0 18.68 0 22C0 25.32 2.68 28 6 28H16.4C16.66 27.04 17.18 26.14 17.9 25.42C20.18 23.14 23.86 23.14 26.14 25.42L28.2 27.48C28.86 27.1 29.6 26.86 30.36 26.78C31.162 25.712 32.558 24.85 34.22 24.64C35.962 22.316 39.93 21.23 43.36 24.66C43.78 23.86 44 22.96 44 22C44 18.68 41.32 16 38 16ZM6 24C4.9 24 4 23.1 4 22C4 20.9 4.9 20 6 20C7.1 20 8 20.9 8 22C8 23.1 7.1 24 6 24ZM14 24C12.9 24 12 23.1 12 22C12 20.9 12.9 20 14 20C15.1 20 16 20.9 16 22C16 23.1 15.1 24 14 24Z" fill="#C4C4C4"/>
<path d="M17.92 33.64C17.44 33.16 17.04 32.6 16.76 32H6C2.68 32 0 34.68 0 38C0 41.32 2.68 44 6 44H20.82C20.82 42 22.202 39.704 23.26 39L17.92 33.64ZM6 40C4.9 40 4 39.1 4 38C4 36.9 4.9 36 6 36C7.1 36 8 36.9 8 38C8 39.1 7.1 40 6 40ZM14 40C12.9 40 12 39.1 12 38C12 36.9 12.9 36 14 36C15.1 36 16 36.9 16 38C16 39.1 15.1 40 14 40Z" fill="#C4C4C4"/>
</g>
<defs>
<clipPath id="clip0">
<rect width="48" height="48" fill="white"/>
</clipPath>
</defs>
</svg>
