<svg width="48" height="48" viewBox="0 0 48 48" fill="none" xmlns="http://www.w3.org/2000/svg">
<path d="M24 0C10.7659 0 0 10.7659 0 24C0 37.2341 10.7659 48 24 48C37.2341 48 48 37.2341 48 24C48 10.7659 37.2341 0 24 0ZM35.4141 36.4138C35.024 36.8038 34.5121 37.0001 34.0001 37.0001C33.4882 37.0001 32.9758 36.8038 32.5862 36.4138L22.5861 26.4141C22.21 26.0402 22.0001 25.5319 22.0001 25.0001V12C22.0001 10.894 22.8959 10.0001 24 10.0001C25.1041 10.0001 25.9999 10.894 25.9999 12V24.1721L35.4141 33.5859C36.1959 34.3682 36.1959 35.632 35.4141 36.4138Z" fill="black"/>
</svg>
