<svg width="48" height="48" viewBox="0 0 48 48" fill="none" xmlns="http://www.w3.org/2000/svg">
<g clip-path="url(#clip0)">
<path d="M41.6819 4.71094H12.8436C10.0435 4.71094 7.66439 6.54262 6.83789 9.07031H35.1561C40.1907 9.07031 44.2867 13.1663 44.2867 18.2008V35.5529C46.4742 34.5587 47.9999 32.3544 47.9999 29.7992V11.0289C47.9999 7.54519 45.1657 4.71094 41.6819 4.71094Z" fill="#C4C4C4"/>
<path d="M41.4743 28.6172H0V36.9711C0 40.4548 2.83425 43.2891 6.31809 43.2891H35.1562C38.64 43.2891 41.4743 40.4548 41.4743 36.9711V28.6172ZM34.6617 32.9297V35.7422H29.5V32.9297H34.6617ZM6.81262 32.9297H19.1876V35.7422H6.81262V32.9297Z" fill="#C4C4C4"/>
<path d="M41.4743 19.0547V18.2008C41.4743 14.7171 38.6401 11.8828 35.1562 11.8828H6.31809C2.83425 11.8828 0 14.7171 0 18.2008V19.0547H41.4743Z" fill="#C4C4C4"/>
<path d="M0 21.8672H41.4743V25.8047H0V21.8672Z" fill="#C4C4C4"/>
</g>
<defs>
<clipPath id="clip0">
<rect width="48" height="48" fill="white"/>
</clipPath>
</defs>
</svg>
