<svg width="48" height="48" viewBox="0 0 48 48" fill="none" xmlns="http://www.w3.org/2000/svg">
<g clip-path="url(#clip0)">
<path d="M13.5 11C12.396 11 11.5 10.104 11.5 9V2C11.5 0.896 12.396 0 13.5 0C14.604 0 15.5 0.896 15.5 2V9C15.5 10.104 14.604 11 13.5 11Z" fill="#C4C4C4"/>
<path d="M23 11C21.896 11 21 10.104 21 9V2C21 0.896 21.896 0 23 0C24.104 0 25 0.896 25 2V9C25 10.104 24.104 11 23 11Z" fill="#C4C4C4"/>
<path d="M32.5 11C31.396 11 30.5 10.104 30.5 9V2C30.5 0.896 31.396 0 32.5 0C33.604 0 34.5 0.896 34.5 2V9C34.5 10.104 33.604 11 32.5 11Z" fill="#C4C4C4"/>
<path d="M36.5 4.5H9.5C6.466 4.5 4 6.966 4 10V42.5C4 45.534 6.466 48 9.5 48H36.5C39.534 48 42 45.534 42 42.5V10C42 6.966 39.534 4.5 36.5 4.5ZM14 16H24C25.104 16 26 16.896 26 18C26 19.104 25.104 20 24 20H14C12.896 20 12 19.104 12 18C12 16.896 12.896 16 14 16ZM34 36H14C12.896 36 12 35.104 12 34C12 32.896 12.896 32 14 32H34C35.104 32 36 32.896 36 34C36 35.104 35.104 36 34 36ZM34 28H14C12.896 28 12 27.104 12 26C12 24.896 12.896 24 14 24H34C35.104 24 36 24.896 36 26C36 27.104 35.104 28 34 28Z" fill="#C4C4C4"/>
</g>
<defs>
<clipPath id="clip0">
<rect width="48" height="48" fill="white"/>
</clipPath>
</defs>
</svg>
